o grass2
v 0.978130 0.000000 0.000000
v 1.131230 0.000000 0.000000
v 1.039750 3.034477 -0.652746
v 1.069611 3.034477 -0.652746
v 1.011081 2.514780 -0.235952
v 0.998454 1.687601 0.000000
v 0.990565 0.843800 0.000000
v 1.118796 0.843800 0.000000
v 1.110907 1.687601 0.000000
v 1.098280 2.514780 -0.235952
vt 0.511928 0.606817
vt 0.511928 0.368672
vt 0.252934 0.329367
vt 0.252934 0.406818
vt 0.856988 0.647773
vt 0.856988 0.382829
vt 0.681452 0.360202
vt 0.681452 0.625532
vt 0.596110 0.374468
vt 0.596110 0.611266
f 5/1 10/2 4/3 3/4
f 1/5 2/6 8/7 7/8
f 7/8 8/7 9/9 6/10
f 6/10 9/9 10/2 5/1
