o grass3
v 2.381083 0.000000 0.000000
v 2.535908 0.000000 0.000000
v 2.438464 3.371943 -0.123569
v 2.478527 3.371943 -0.123569
v 2.399092 2.577248 -0.033472
v 2.384057 1.687601 0.000000
v 2.377736 0.830876 0.056005
v 2.539255 0.830876 0.056005
v 2.532935 1.687601 0.000000
v 2.517900 2.577248 -0.033472
vt 0.343779 0.392609
vt 0.343779 0.298312
vt 0.042874 0.163285
vt 0.042874 0.194450
vt 0.679598 0.704350
vt 0.679598 0.580531
vt 0.565115 0.479235
vt 0.565115 0.610071
vt 0.454534 0.367112
vt 0.454534 0.486175
f 5/1 10/2 4/3 3/4
f 1/5 2/6 8/7 7/8
f 7/8 8/7 9/9 6/10
f 6/10 9/9 10/2 5/1
