o grass1
v -0.093619 0.000000 0.000000
v 0.093619 0.000000 0.000000
v -0.014930 3.375201 -0.312021
v 0.014930 3.375201 -0.312021
v -0.061221 2.531401 -0.067667
v -0.069833 1.687601 0.000000
v -0.080523 0.843800 0.000000
v 0.080523 0.843800 0.000000
v 0.069833 1.687601 0.000000
v 0.061221 2.531401 -0.067667
vt 0.387867 0.364517
vt 0.387867 0.543988
vt 0.043992 0.252197
vt 0.043992 0.224490
vt 0.899948 0.408063
vt 0.899948 0.600254
vt 0.608983 0.623804
vt 0.608983 0.399272
vt 0.465067 0.596171
vt 0.465067 0.382625
f 5/1 10/2 4/3 3/4
f 1/5 2/6 8/7 7/8
f 7/8 8/7 9/9 6/10
f 6/10 9/9 10/2 5/1
